<?xml version="1.0" encoding="UTF-8"?>
<svg id="a" data-name="レイヤー 1" xmlns="http://www.w3.org/2000/svg" viewBox="0 0 566.73 416.31">
  <defs>
    <style>
      .b, .c, .d, .e, .f, .g, .h, .i, .j, .k, .l, .m, .n, .o {
        fill-rule: evenodd;
      }

      .b, .p {
        fill: #313033;
      }

      .c {
        fill: #b13523;
      }

      .d {
        fill: #c1381f;
      }

      .e {
        fill: #f5d53c;
      }

      .f {
        fill: #3c3c40;
      }

      .q {
        fill: #72271b;
      }

      .g {
        fill: #eb5a2b;
      }

      .r {
        fill: #ef8560;
      }

      .h {
        fill: #fbe1d8;
      }

      .i {
        fill: #4d4b4f;
      }

      .s {
        fill: #fdefea;
      }

      .j {
        fill: #521a0f;
      }

      .k, .t {
        fill: #d44317;
      }

      .l {
        fill: #eec251;
      }

      .u {
        fill: #e0b23f;
      }

      .m {
        fill: #706e73;
      }

      .v {
        fill: #4d4c50;
      }

      .n {
        fill: #cfa232;
      }

      .o {
        fill: #a93124;
      }
    </style>
  </defs>
  <g>
    <g>
      <rect class="v" x="137.69" y="91.27" width="17.77" height="42.94"/>
      <path class="b" d="m137.69,91.28h17.77v23.99c-2.18-3.5-5.35-5.7-8.88-5.7s-6.7,2.2-8.88,5.7v-23.99Z"/>
    </g>
    <g>
      <rect class="v" x="292.26" y="91.27" width="17.77" height="42.94"/>
      <path class="b" d="m292.26,91.28h17.77v23.99c-2.18-3.5-5.35-5.7-8.88-5.7s-6.7,2.2-8.88,5.7v-23.99Z"/>
    </g>
  </g>
  <path class="d" d="m60.85,0h326.02c16.29,0,29.61,13.32,29.61,29.61h0c0,16.29-13.33,29.61-29.61,29.61H60.85c-16.29,0-29.61-13.32-29.61-29.61h0C31.24,13.32,44.56,0,60.85,0Z"/>
  <path class="o" d="m409.01,49.22c-5.43,6.13-13.36,10.01-22.14,10.01H60.85c-8.79,0-16.71-3.88-22.14-10.01,2.75-21.01,20.84-37.37,42.57-37.37h285.16c21.73,0,39.82,16.36,42.57,37.37Z"/>
  <path class="p" d="m61.91,333.96h42.07c6.82,0,12.36,5.54,12.36,12.36v28c0,6.82-5.54,12.36-12.36,12.36h-42.07c-6.82,0-12.36-5.54-12.36-12.36v-28c0-6.82,5.54-12.36,12.36-12.36Z"/>
  <path class="k" d="m465.51,187.66h-182.93v194h250.41v-126.53c0-37.11-30.36-67.48-67.48-67.48Z"/>
  <path class="k" d="m521.28,276.76h-182.82v104.91h219.31v-68.42c0-20.07-16.42-36.49-36.49-36.49Z"/>
  <path class="g" d="m0,253.03C0,182.28,57.88,124.4,128.63,124.4h159.21c70.75,0,128.63,57.88,128.63,128.63h0c0,70.75-57.89,128.63-128.63,128.63h-159.21C57.88,381.67,0,323.78,0,253.03"/>
  <path class="q" d="m120.07,167.63h176.35c38.04,0,68.93,30.89,68.93,68.93h0c0,38.05-30.89,68.93-68.93,68.93H120.07c-38.04,0-68.93-30.89-68.93-68.93h0c0-38.05,30.89-68.93,68.93-68.93Z"/>
  <path class="j" d="m356.43,270.35c-11.87,20.93-34.36,35.14-60.01,35.14H120.07c-25.65,0-48.15-14.21-60.01-35.14h296.37Z"/>
  <rect class="r" x="185.57" y="167.63" width="45.34" height="37.43"/>
  <path class="g" d="m208.24,231.68h0c12.47,0,22.67-10.2,22.67-22.67v-3.96h-45.34v3.96c0,12.47,10.2,22.67,22.67,22.67Z"/>
  <rect class="s" x="230.91" y="167.63" width="45.34" height="37.43"/>
  <path class="h" d="m253.58,231.68h0c12.47,0,22.67-10.2,22.67-22.67v-3.96h-45.34v3.96c0,12.47,10.2,22.67,22.67,22.67Z"/>
  <rect class="r" x="276.25" y="167.63" width="45.34" height="37.43"/>
  <path class="g" d="m298.92,231.68h0c12.47,0,22.67-10.2,22.67-22.67v-3.96h-45.34v3.96c0,12.47,10.2,22.67,22.67,22.67Z"/>
  <rect class="s" x="321.58" y="167.63" width="45.34" height="37.43"/>
  <path class="h" d="m344.25,231.68h0c12.47,0,22.67-10.2,22.67-22.67v-3.96h-45.34v3.96c0,12.47,10.2,22.67,22.67,22.67Z"/>
  <rect class="s" x="49.56" y="167.63" width="45.34" height="37.43"/>
  <path class="h" d="m72.23,231.68h0c12.47,0,22.67-10.2,22.67-22.67v-3.96h-45.34v3.96c0,12.47,10.2,22.67,22.67,22.67Z"/>
  <rect class="r" x="94.89" y="167.63" width="45.34" height="37.43"/>
  <path class="g" d="m117.56,231.68h0c12.47,0,22.67-10.2,22.67-22.67v-3.96h-45.34v3.96c0,12.47,10.2,22.67,22.67,22.67Z"/>
  <rect class="s" x="140.23" y="167.63" width="45.34" height="37.43"/>
  <path class="h" d="m162.9,231.68h0c12.47,0,22.67-10.2,22.67-22.67v-3.96h-45.34v3.96c0,12.47,10.2,22.67,22.67,22.67Z"/>
  <path class="p" d="m540.9,333.96h17.92c4.36,0,7.91,3.54,7.91,7.91v36.9c0,4.37-3.54,7.91-7.91,7.91h-17.92c-4.37,0-7.91-3.54-7.91-7.91v-36.9c0-4.37,3.54-7.91,7.91-7.91Z"/>
  <path class="b" d="m532.99,278.7v-23.56c0-15.09-5.02-29.06-13.46-40.33h-77.21c-6.09,0-11.07,4.98-11.07,11.07v41.74c0,6.09,4.98,11.07,11.07,11.07h90.68Z"/>
  <path class="i" d="m532.49,246.94c-1.46-11.93-6.07-22.93-12.97-32.13h-12.06l-38.83,63.88h44.55l19.3-31.76h0Zm-39.26-32.13l-38.83,63.88h-12.09c-4.17,0-7.82-2.34-9.71-5.77l35.32-58.12h25.3Z"/>
  <path class="b" d="m521.28,276.76h-85.2c1.78,1.22,3.93,1.94,6.24,1.94h90.68c-3.68-1.26-7.62-1.94-11.71-1.94Z"/>
  <rect class="t" x="498.72" y="210.33" width="14.23" height="74.33"/>
  <path class="c" d="m404.51,381.67h93.08c.22-1.85.34-3.74.34-5.65,0-25.89-20.99-46.88-46.88-46.88s-46.88,20.99-46.88,46.88c0,1.91.12,3.8.34,5.65Z"/>
  <path class="c" d="m404.51,381.67h93.08c.22-1.85.34-3.74.34-5.65,0-25.89-20.99-46.88-46.88-46.88s-46.88,20.99-46.88,46.88c0,1.91.12,3.8.34,5.65Z"/>
  <path class="b" d="m451.05,416.31c22.19,0,40.29-18.1,40.29-40.29s-18.1-40.29-40.29-40.29-40.29,18.1-40.29,40.29,18.1,40.29,40.29,40.29Z"/>
  <path class="m" d="m451.05,398.29c12.27,0,22.28-10.01,22.28-22.28s-10.01-22.28-22.28-22.28-22.28,10.01-22.28,22.28,10.01,22.28,22.28,22.28Z"/>
  <path class="f" d="m451.05,391.64c8.61,0,15.63-7.02,15.63-15.63s-7.02-15.63-15.63-15.63-15.63,7.02-15.63,15.63,7.02,15.63,15.63,15.63Z"/>
  <path class="c" d="m127.73,381.67h93.08c.22-1.85.34-3.74.34-5.65,0-25.89-20.99-46.88-46.88-46.88s-46.88,20.99-46.88,46.88c0,1.91.12,3.8.34,5.65Z"/>
  <path class="c" d="m127.73,381.67h93.08c.22-1.85.34-3.74.34-5.65,0-25.89-20.99-46.88-46.88-46.88s-46.88,20.99-46.88,46.88c0,1.91.12,3.8.34,5.65Z"/>
  <path class="b" d="m174.28,416.31c22.19,0,40.29-18.1,40.29-40.29s-18.1-40.29-40.29-40.29-40.29,18.1-40.29,40.29,18.1,40.29,40.29,40.29Z"/>
  <path class="m" d="m174.28,398.29c12.27,0,22.28-10.01,22.28-22.28s-10.01-22.28-22.28-22.28-22.28,10.01-22.28,22.28,10.01,22.28,22.28,22.28Z"/>
  <path class="f" d="m174.28,391.64c8.61,0,15.63-7.02,15.63-15.63s-7.02-15.63-15.63-15.63-15.63,7.02-15.63,15.63,7.02,15.63,15.63,15.63Z"/>
  <rect class="u" x="55.96" y="16.29" width="335.79" height="85.87" rx="42.94" ry="42.94"/>
  <path class="n" d="m391.75,59.22c0,23.62-19.32,42.94-42.94,42.94H98.9c-23.61,0-42.94-19.32-42.94-42.94,0,9.12,19.32,16.58,42.94,16.58h249.92c23.61,0,42.94-7.46,42.94-16.58Z"/>
  <path class="l" d="m129.72,23.69h188.28c15.67,0,15.67,23.69,0,23.69h-188.28c-15.67,0-15.67-23.69,0-23.69Z"/>
  <path class="e" d="m84.57,37.92c-2.97.82-6.04-.92-6.86-3.89-.82-2.97.92-6.04,3.89-6.86,8.88-2.48,18.08-2.45,26.66-.15,8.59,2.3,16.57,6.87,23.02,13.46,2.85,2.92,6.22,5.19,9.89,6.73,3.63,1.53,7.61,2.34,11.71,2.34s8.07-.81,11.7-2.34c3.66-1.54,7.03-3.82,9.89-6.73,4.91-5.02,10.74-8.94,17.1-11.62,6.39-2.69,13.28-4.12,20.29-4.12s13.89,1.43,20.29,4.12c6.36,2.68,12.19,6.6,17.1,11.62,3.61,3.69,7.87,6.56,12.51,8.51,4.61,1.94,9.64,2.97,14.81,2.97s10.2-1.03,14.81-2.97c4.64-1.95,8.9-4.83,12.5-8.51,5.01-5.12,10.96-9.13,17.47-11.87,6.53-2.75,13.56-4.2,20.71-4.2s14.19,1.46,20.71,4.2c6.5,2.73,12.45,6.74,17.46,11.87,2.16,2.2,2.13,5.73-.07,7.89-2.2,2.16-5.73,2.13-7.89-.07-3.99-4.08-8.7-7.26-13.83-9.42-5.1-2.14-10.67-3.28-16.39-3.28s-11.28,1.14-16.39,3.28c-5.13,2.16-9.85,5.34-13.83,9.42-4.63,4.73-10.13,8.44-16.13,10.96-6.03,2.54-12.53,3.88-19.14,3.88s-13.1-1.35-19.14-3.88c-6-2.53-11.5-6.23-16.13-10.96-3.88-3.97-8.48-7.07-13.47-9.17-4.97-2.09-10.39-3.2-15.96-3.2s-10.99,1.11-15.96,3.2c-5,2.1-9.59,5.2-13.47,9.17-3.88,3.96-8.48,7.06-13.51,9.18-5.06,2.13-10.51,3.26-16.03,3.26s-10.97-1.13-16.03-3.26c-5.03-2.12-9.64-5.22-13.51-9.18-5.02-5.13-11.25-8.69-17.95-10.49-6.71-1.8-13.88-1.83-20.8.11Z"/>
</svg>