<?xml version="1.0" encoding="UTF-8" standalone="no"?>
<!-- Created with Inkscape (http://www.inkscape.org/) -->

<svg
   version="1.1"
   id="svg2"
   viewBox="0 0 876.01068 876.01068"
   xmlns:svg="http://www.w3.org/2000/svg"><defs
     id="defs6"><clipPath
       clipPathUnits="userSpaceOnUse"
       id="clipPath16"><path
         d="M 0,657.008 H 657.008 V 0 H 0 Z"
         id="path14" /></clipPath></defs><g
     id="g8"
     transform="matrix(1.3333333,0,0,-1.3333333,0,876.01067)"><g
       id="g10"><g
         id="g12"
         clip-path="url(#clipPath16)"><g
           id="g18"
           transform="translate(159.6028,448.8023)"><path
             d="m 0,0 h 336.835 l 0.512,-33.439 c 0,-34.904 -28.558,-63.462 -63.462,-63.462 H 63.973 c -34.904,0 -63.462,28.558 -63.462,63.462 z"
             style="fill:#f49d42;fill-opacity:1;fill-rule:evenodd;stroke:none"
             id="path20" /></g><g
           id="g22"
           transform="translate(211.7534,438.9848)"><path
             d="M 0,0 C 7.448,0 13.855,-4.462 16.693,-10.86 19.53,-4.462 25.936,0 33.385,0 40.835,0 47.242,-4.462 50.078,-10.86 52.915,-4.462 59.322,0 66.771,0 74.221,0 80.627,-4.462 83.463,-10.86 86.302,-4.462 92.709,0 100.157,0 c 7.449,0 13.855,-4.462 16.694,-10.86 2.838,6.398 9.241,10.86 16.691,10.86 7.449,0 13.856,-4.462 16.693,-10.86 2.837,6.398 9.243,10.86 16.694,10.86 7.448,0 13.855,-4.462 16.691,-10.86 2.839,6.398 9.244,10.86 16.694,10.86 7.45,0 13.857,-4.462 16.693,-10.86 2.837,6.398 9.244,10.86 16.692,10.86 7.449,0 13.857,-4.462 16.694,-10.86 2.837,6.398 9.243,10.86 16.693,10.86 10.081,0 18.254,-8.171 18.254,-18.252 0,-10.081 -8.173,-18.253 -18.254,-18.253 -7.45,0 -13.856,4.462 -16.693,10.86 -2.837,-6.398 -9.245,-10.86 -16.694,-10.86 -7.448,0 -13.855,4.462 -16.692,10.86 -2.836,-6.398 -9.243,-10.86 -16.693,-10.86 -7.45,0 -13.855,4.462 -16.694,10.86 -2.836,-6.398 -9.243,-10.86 -16.691,-10.86 -7.451,0 -13.857,4.462 -16.694,10.86 -2.837,-6.398 -9.244,-10.86 -16.693,-10.86 -7.45,0 -13.853,4.462 -16.691,10.86 -2.839,-6.398 -9.245,-10.86 -16.694,-10.86 -7.448,0 -13.855,4.462 -16.694,10.86 -2.836,-6.398 -9.242,-10.86 -16.692,-10.86 -7.449,0 -13.856,4.462 -16.693,10.86 -2.836,-6.398 -9.243,-10.86 -16.693,-10.86 -7.449,0 -13.855,4.462 -16.692,10.86 -2.838,-6.398 -9.245,-10.86 -16.693,-10.86 -7.45,0 -13.855,4.462 -16.693,10.86 -2.839,-6.398 -9.243,-10.86 -16.692,-10.86 -10.081,0 -18.254,8.172 -18.254,18.253 0,10.081 8.173,18.252 18.254,18.252 7.449,0 13.853,-4.462 16.692,-10.86 C -13.855,-4.462 -7.45,0 0,0"
             style="fill:#87b027;fill-opacity:1;fill-rule:evenodd;stroke:none"
             id="path24" /></g><g
           id="g26"
           transform="translate(466.018,416.3383)"><path
             d="m 0,0 2.103,-4.743 c 1.877,-4.234 6.072,-6.973 10.718,-6.973 6.472,0 11.716,5.244 11.716,11.716 0,6.473 -5.244,11.716 -11.716,11.716 -4.646,0 -8.841,-2.737 -10.718,-6.972 z m -33.385,0 2.103,-4.742 c 1.878,-4.235 6.07,-6.974 10.717,-6.974 4.647,0 8.84,2.739 10.717,6.974 L -7.743,0 -9.848,4.744 c -1.877,4.235 -6.07,6.972 -10.717,6.972 -4.647,0 -8.839,-2.737 -10.717,-6.972 z m -33.386,0 2.103,-4.742 c 1.879,-4.235 6.07,-6.974 10.717,-6.974 4.646,0 8.841,2.739 10.719,6.974 L -41.13,0 -43.232,4.744 c -1.878,4.235 -6.073,6.972 -10.719,6.972 -4.647,0 -8.838,-2.737 -10.717,-6.972 z m -33.386,0 2.104,-4.743 c 1.878,-4.234 6.071,-6.973 10.717,-6.973 4.647,0 8.839,2.739 10.717,6.974 L -74.516,0 -76.619,4.744 c -1.878,4.235 -6.07,6.972 -10.717,6.972 -4.646,0 -8.839,-2.737 -10.717,-6.972 z m -33.387,0 2.105,-4.742 c 1.878,-4.235 6.07,-6.974 10.716,-6.974 4.647,0 8.84,2.739 10.719,6.974 l 2.102,4.742 -2.102,4.744 c -1.879,4.235 -6.072,6.972 -10.719,6.972 -4.646,0 -8.838,-2.737 -10.716,-6.972 z m -33.385,0 2.103,-4.742 c 1.878,-4.235 6.072,-6.974 10.718,-6.974 4.647,0 8.841,2.739 10.718,6.974 l 2.103,4.742 -2.103,4.744 c -1.877,4.235 -6.071,6.972 -10.718,6.972 -4.646,0 -8.84,-2.737 -10.718,-6.972 z m -33.384,0 2.102,-4.742 c 1.878,-4.235 6.071,-6.974 10.718,-6.974 4.646,0 8.839,2.739 10.717,6.973 l 2.104,4.743 -2.104,4.744 c -1.878,4.235 -6.071,6.972 -10.717,6.972 -4.647,0 -8.84,-2.737 -10.718,-6.972 z m -33.387,0 2.103,-4.742 c 1.879,-4.235 6.071,-6.974 10.717,-6.974 4.647,0 8.841,2.739 10.719,6.974 l 2.102,4.742 -2.102,4.744 c -1.878,4.235 -6.072,6.972 -10.719,6.972 -4.646,0 -8.838,-2.737 -10.717,-6.972 z m -41.129,0 -2.104,4.744 c -1.878,4.235 -6.07,6.972 -10.717,6.972 -6.474,0 -11.718,-5.243 -11.718,-11.716 0,-6.472 5.244,-11.716 11.718,-11.716 4.647,0 8.839,2.739 10.717,6.973 z m 7.742,0 2.104,-4.742 c 1.878,-4.235 6.072,-6.974 10.718,-6.974 4.647,0 8.84,2.739 10.719,6.974 l 2.102,4.742 -2.102,4.744 c -1.879,4.235 -6.072,6.972 -10.719,6.972 -4.646,0 -8.84,-2.737 -10.718,-6.972 z"
             style="fill:#9ac421;fill-opacity:1;fill-rule:evenodd;stroke:none"
             id="path28" /></g><g
           id="g30"
           transform="translate(168.9004,420.7324)"><path
             d="m 0,0 h 319.263 c 37.858,0 68.831,-30.975 68.831,-68.831 v -0.002 c 0,-37.857 -30.973,-68.829 -68.831,-68.829 H 0 c -37.857,0 -68.83,30.972 -68.83,68.829 v 0.002 C -68.83,-30.975 -37.857,0 0,0"
             style="fill:#f14624;fill-opacity:1;fill-rule:evenodd;stroke:none"
             id="path32" /></g><g
           id="g34"
           transform="translate(204.4707,283.0703)"><path
             d="m 0,0 h -35.57 c -21.291,0 -40.403,9.795 -53.053,25.103 17.928,-9.506 41.959,-0.463 44.267,25.665 z m 248.122,0 h 35.571 c 21.291,0 40.402,9.795 53.055,25.103 -17.93,-9.506 -41.961,-0.463 -44.269,25.665 z"
             style="fill:#ef3726;fill-opacity:1;fill-rule:evenodd;stroke:none"
             id="path36" /></g><g
           id="g38"
           transform="translate(211.0849,346.7561)"><path
             d="M 0,0 C 7.448,0 13.855,-4.462 16.693,-10.86 19.53,-4.462 25.936,0 33.385,0 40.835,0 47.242,-4.462 50.078,-10.86 52.915,-4.462 59.322,0 66.771,0 74.221,0 80.627,-4.462 83.463,-10.86 86.302,-4.462 92.709,0 100.157,0 c 7.449,0 13.855,-4.462 16.694,-10.86 2.838,6.398 9.241,10.86 16.691,10.86 7.449,0 13.856,-4.462 16.693,-10.86 2.837,6.398 9.244,10.86 16.694,10.86 7.448,0 13.855,-4.462 16.691,-10.86 2.839,6.398 9.244,10.86 16.694,10.86 7.45,0 13.857,-4.462 16.693,-10.86 2.837,6.398 9.244,10.86 16.692,10.86 7.449,0 13.857,-4.462 16.694,-10.86 2.838,6.398 9.243,10.86 16.693,10.86 10.081,0 18.254,-8.171 18.254,-18.253 0,-10.08 -8.173,-18.251 -18.254,-18.251 -7.45,0 -13.855,4.461 -16.693,10.859 -2.837,-6.398 -9.245,-10.859 -16.694,-10.859 -7.448,0 -13.855,4.461 -16.692,10.859 -2.836,-6.398 -9.243,-10.859 -16.693,-10.859 -7.45,0 -13.855,4.461 -16.694,10.859 -2.836,-6.398 -9.243,-10.859 -16.691,-10.859 -7.45,0 -13.857,4.461 -16.694,10.859 -2.837,-6.398 -9.244,-10.859 -16.693,-10.859 -7.45,0 -13.853,4.461 -16.691,10.859 -2.839,-6.398 -9.245,-10.859 -16.694,-10.859 -7.448,0 -13.855,4.461 -16.694,10.859 -2.836,-6.398 -9.242,-10.859 -16.692,-10.859 -7.449,0 -13.856,4.461 -16.693,10.859 -2.836,-6.398 -9.243,-10.859 -16.693,-10.859 -7.449,0 -13.855,4.461 -16.692,10.859 C 13.855,-32.043 7.448,-36.504 0,-36.504 c -7.45,0 -13.855,4.461 -16.693,10.859 -2.839,-6.398 -9.242,-10.859 -16.692,-10.859 -10.081,0 -18.254,8.171 -18.254,18.251 0,10.082 8.173,18.253 18.254,18.253 7.45,0 13.853,-4.462 16.692,-10.86 C -13.855,-4.462 -7.45,0 0,0"
             style="fill:#adda1a;fill-opacity:1;fill-rule:evenodd;stroke:none"
             id="path40" /></g><g
           id="g42"
           transform="translate(465.3495,324.1101)"><path
             d="m 0,0 2.103,-4.744 c 1.877,-4.233 6.072,-6.973 10.718,-6.973 6.472,0 11.716,5.244 11.716,11.717 0,6.472 -5.244,11.716 -11.716,11.716 -4.646,0 -8.841,-2.738 -10.718,-6.973 z m -33.385,0 2.103,-4.742 c 1.878,-4.235 6.07,-6.975 10.717,-6.975 4.647,0 8.84,2.74 10.717,6.975 L -7.743,0 -9.848,4.743 c -1.877,4.234 -6.07,6.973 -10.717,6.973 -4.647,0 -8.839,-2.739 -10.717,-6.973 z m -33.386,0 2.103,-4.742 c 1.879,-4.235 6.07,-6.975 10.717,-6.975 4.646,0 8.841,2.74 10.719,6.975 L -41.13,0 -43.232,4.743 c -1.878,4.234 -6.073,6.973 -10.719,6.973 -4.647,0 -8.838,-2.739 -10.717,-6.973 z m -33.386,0 2.104,-4.744 c 1.878,-4.233 6.071,-6.973 10.717,-6.973 4.647,0 8.839,2.74 10.717,6.975 L -74.516,0 -76.619,4.743 c -1.878,4.234 -6.07,6.973 -10.717,6.973 -4.646,0 -8.839,-2.738 -10.717,-6.973 z m -33.387,0 2.105,-4.742 c 1.878,-4.235 6.07,-6.975 10.716,-6.975 4.647,0 8.84,2.74 10.719,6.975 l 2.102,4.742 -2.102,4.743 c -1.879,4.234 -6.072,6.973 -10.719,6.973 -4.646,0 -8.838,-2.739 -10.716,-6.973 z m -33.385,0 2.103,-4.742 c 1.878,-4.235 6.072,-6.975 10.718,-6.975 4.647,0 8.84,2.74 10.718,6.975 l 2.103,4.742 -2.103,4.743 c -1.878,4.234 -6.071,6.973 -10.718,6.973 -4.646,0 -8.84,-2.739 -10.718,-6.973 z m -33.384,0 2.102,-4.742 c 1.878,-4.235 6.071,-6.975 10.718,-6.975 4.646,0 8.839,2.74 10.717,6.973 l 2.104,4.744 -2.104,4.743 c -1.878,4.235 -6.071,6.973 -10.717,6.973 -4.647,0 -8.84,-2.739 -10.718,-6.973 z m -33.387,0 2.103,-4.742 c 1.879,-4.235 6.071,-6.975 10.717,-6.975 4.647,0 8.84,2.74 10.719,6.975 l 2.102,4.742 -2.102,4.743 c -1.879,4.234 -6.072,6.973 -10.719,6.973 -4.646,0 -8.838,-2.739 -10.717,-6.973 z m -41.129,0 -2.104,4.743 c -1.878,4.235 -6.07,6.973 -10.717,6.973 -6.474,0 -11.718,-5.244 -11.718,-11.716 0,-6.473 5.244,-11.717 11.718,-11.717 4.647,0 8.839,2.74 10.717,6.973 z m 7.742,0 2.104,-4.742 c 1.878,-4.235 6.072,-6.975 10.718,-6.975 4.647,0 8.84,2.74 10.719,6.975 l 2.102,4.742 -2.102,4.743 c -1.879,4.234 -6.072,6.973 -10.719,6.973 -4.646,0 -8.84,-2.739 -10.718,-6.973 z"
             style="fill:#c6e446;fill-opacity:1;fill-rule:evenodd;stroke:none"
             id="path44" /></g><g
           id="g46"
           transform="translate(159.6028,328.5039)"><path
             d="m 0,0 h 336.835 l 0.512,-33.439 c 0,-34.904 -28.558,-63.462 -63.462,-63.462 H 63.973 c -34.904,0 -63.462,28.558 -63.462,63.462 z"
             style="fill:#e68a34;fill-opacity:1;fill-rule:evenodd;stroke:none"
             id="path48" /></g><g
           id="g50"
           transform="translate(482.5377,254.4301)"><path
             d="m 0,0 c -11.666,-14.092 -29.272,-23.107 -48.884,-23.107 h -209.911 c -19.611,0 -37.219,9.015 -48.882,23.107 3.068,4.601 8.304,7.647 14.219,7.647 H -14.221 C -8.307,7.647 -3.07,4.601 0,0"
             style="fill:#ce731f;fill-opacity:1;fill-rule:evenodd;stroke:none"
             id="path52" /></g><g
           id="g54"
           transform="translate(183.7886,315.7744)"><path
             d="m 0,0 h 289.487 c 6.578,0 11.959,-5.382 11.959,-11.957 v -0.004 c 0,-6.575 -5.381,-11.958 -11.959,-11.958 H 0 c -6.577,0 -11.959,5.383 -11.959,11.958 v 0.004 C -11.959,-5.382 -6.577,0 0,0"
             style="fill:#f49d42;fill-opacity:1;fill-rule:evenodd;stroke:none"
             id="path56" /></g><g
           id="g58"
           transform="translate(182.4746,411.0849)"><path
             d="m 0,0 h 292.115 c 10.957,0 19.923,-8.964 19.923,-19.922 0,-10.958 -8.966,-19.923 -19.923,-19.923 H 0 c -10.957,0 -19.921,8.965 -19.921,19.923 C -19.921,-8.964 -10.957,0 0,0"
             style="fill:#f46d1e;fill-opacity:1;fill-rule:evenodd;stroke:none"
             id="path60" /></g><g
           id="g62"
           transform="translate(198.1133,256.2192)"><path
             d="m 0,0 h 4.882 c 1.746,0 3.173,-1.429 3.173,-3.173 0,-1.745 -1.427,-3.174 -3.173,-3.174 H 0 c -1.747,0 -3.173,1.429 -3.173,3.174 C -3.173,-1.429 -1.747,0 0,0 m 26.361,20.015 h 4.882 c 1.745,0 3.172,-1.427 3.172,-3.173 0,-1.747 -1.427,-3.174 -3.172,-3.174 h -4.882 c -1.746,0 -3.174,1.427 -3.174,3.174 0,1.746 1.428,3.173 3.174,3.173 M 2.929,26.848 h 4.882 c 1.744,0 3.173,-1.427 3.173,-3.172 0,-1.744 -1.429,-3.173 -3.173,-3.173 H 2.929 c -1.745,0 -3.174,1.429 -3.174,3.173 0,1.745 1.429,3.172 3.174,3.172 M -20.504,16.599 h 4.882 c 1.746,0 3.173,-1.429 3.173,-3.176 0,-1.744 -1.427,-3.172 -3.173,-3.172 h -4.882 c -1.745,0 -3.172,1.428 -3.172,3.172 0,1.747 1.427,3.176 3.172,3.176 M 28.558,1.464 h 4.881 c 1.745,0 3.174,-1.427 3.174,-3.172 0,-1.746 -1.429,-3.174 -3.174,-3.174 h -4.881 c -1.746,0 -3.174,1.428 -3.174,3.174 0,1.745 1.428,3.172 3.174,3.172 m 24.896,25.873 h 4.883 c 1.745,0 3.172,-1.427 3.172,-3.173 0,-1.747 -1.427,-3.174 -3.172,-3.174 h -4.883 c -1.745,0 -3.174,1.427 -3.174,3.174 0,1.746 1.429,3.173 3.174,3.173 M 66.146,3.417 h 4.881 c 1.747,0 3.174,-1.429 3.174,-3.174 0,-1.745 -1.427,-3.172 -3.174,-3.172 h -4.881 c -1.745,0 -3.172,1.427 -3.172,3.172 0,1.745 1.427,3.174 3.172,3.174 M 30.509,34.17 h 4.883 c 1.747,0 3.173,-1.427 3.173,-3.172 0,-1.744 -1.426,-3.173 -3.173,-3.173 h -4.883 c -1.745,0 -3.172,1.429 -3.172,3.173 0,1.745 1.427,3.172 3.172,3.172 M 80.546,17.818 h 4.883 c 1.747,0 3.174,-1.428 3.174,-3.172 0,-1.748 -1.427,-3.174 -3.174,-3.174 h -4.883 c -1.745,0 -3.171,1.426 -3.171,3.174 0,1.744 1.426,3.172 3.171,3.172 M 48.815,10.007 h 4.882 c 1.746,0 3.175,-1.427 3.175,-3.172 0,-1.745 -1.429,-3.174 -3.175,-3.174 h -4.882 c -1.745,0 -3.171,1.429 -3.171,3.174 0,1.745 1.426,3.172 3.171,3.172 M 94.948,-3.661 h 4.883 c 1.745,0 3.172,-1.429 3.172,-3.173 0,-1.747 -1.427,-3.174 -3.172,-3.174 h -4.883 c -1.746,0 -3.174,1.427 -3.174,3.174 0,1.744 1.428,3.173 3.174,3.173 m 1.708,32.219 h 4.884 c 1.744,0 3.173,-1.427 3.173,-3.174 0,-1.746 -1.429,-3.173 -3.173,-3.173 h -4.884 c -1.744,0 -3.172,1.427 -3.172,3.173 0,1.747 1.428,3.174 3.172,3.174 m 11.473,-13.182 h 4.882 c 1.745,0 3.172,-1.427 3.172,-3.173 0,-1.745 -1.427,-3.172 -3.172,-3.172 h -4.882 c -1.746,0 -3.174,1.427 -3.174,3.172 0,1.746 1.428,3.173 3.174,3.173 m 17.086,16.11 h 4.882 c 1.744,0 3.172,-1.428 3.172,-3.174 0,-1.744 -1.428,-3.171 -3.172,-3.171 h -4.882 c -1.746,0 -3.174,1.427 -3.174,3.171 0,1.746 1.428,3.174 3.174,3.174 M 124.483,1.951 h 4.882 c 1.746,0 3.173,-1.427 3.173,-3.173 0,-1.745 -1.427,-3.171 -3.173,-3.171 h -4.882 c -1.747,0 -3.174,1.426 -3.174,3.171 0,1.746 1.427,3.173 3.174,3.173 m 17.329,18.553 h 4.881 c 1.747,0 3.174,-1.429 3.174,-3.175 0,-1.745 -1.427,-3.172 -3.174,-3.172 h -4.881 c -1.745,0 -3.172,1.427 -3.172,3.172 0,1.746 1.427,3.175 3.172,3.175 m 4.881,-23.189 h 4.882 c 1.747,0 3.174,-1.427 3.174,-3.173 0,-1.745 -1.427,-3.172 -3.174,-3.172 h -4.882 c -1.744,0 -3.171,1.427 -3.171,3.172 0,1.746 1.427,3.173 3.171,3.173 m 20.26,17.818 h 4.881 c 1.747,0 3.173,-1.427 3.173,-3.173 0,-1.745 -1.426,-3.174 -3.173,-3.174 h -4.881 c -1.746,0 -3.174,1.429 -3.174,3.174 0,1.746 1.428,3.173 3.174,3.173 m 14.887,14.889 h 4.884 c 1.745,0 3.174,-1.428 3.174,-3.174 0,-1.745 -1.429,-3.172 -3.174,-3.172 h -4.884 c -1.744,0 -3.171,1.427 -3.171,3.172 0,1.746 1.427,3.174 3.171,3.174 M 201.369,8.786 h 4.882 c 1.745,0 3.173,-1.427 3.173,-3.172 0,-1.746 -1.428,-3.174 -3.173,-3.174 h -4.882 c -1.746,0 -3.173,1.428 -3.173,3.174 0,1.745 1.427,3.172 3.173,3.172 M 179.157,-1.465 h 4.882 c 1.746,0 3.173,-1.427 3.173,-3.174 0,-1.744 -1.427,-3.172 -3.173,-3.172 h -4.882 c -1.746,0 -3.173,1.428 -3.173,3.172 0,1.747 1.427,3.174 3.173,3.174 m 44.18,1.708 h 4.881 c 1.745,0 3.174,-1.427 3.174,-3.172 0,-1.746 -1.429,-3.173 -3.174,-3.173 h -4.881 c -1.747,0 -3.173,1.427 -3.173,3.173 0,1.745 1.426,3.172 3.173,3.172 m -16.354,23.433 h 4.882 c 1.745,0 3.174,-1.427 3.174,-3.173 0,-1.745 -1.429,-3.174 -3.174,-3.174 h -4.882 c -1.746,0 -3.173,1.429 -3.173,3.174 0,1.746 1.427,3.173 3.173,3.173 m 24.407,-5.859 h 4.883 c 1.745,0 3.172,-1.428 3.172,-3.173 0,-1.746 -1.427,-3.172 -3.172,-3.172 h -4.883 c -1.745,0 -3.172,1.426 -3.172,3.172 0,1.745 1.427,3.173 3.172,3.173 m 17.087,9.033 h 4.882 c 1.745,0 3.174,-1.429 3.174,-3.174 0,-1.744 -1.429,-3.172 -3.174,-3.172 h -4.882 c -1.744,0 -3.173,1.428 -3.173,3.172 0,1.745 1.429,3.174 3.173,3.174 M 254.58,8.297 h 4.881 c 1.746,0 3.172,-1.427 3.172,-3.172 0,-1.745 -1.426,-3.174 -3.172,-3.174 h -4.881 c -1.747,0 -3.174,1.429 -3.174,3.174 0,1.745 1.427,3.172 3.174,3.172 m 14.888,12.693 h 4.881 c 1.747,0 3.174,-1.426 3.174,-3.173 0,-1.745 -1.427,-3.173 -3.174,-3.173 h -4.881 c -1.745,0 -3.174,1.428 -3.174,3.173 0,1.747 1.429,3.173 3.174,3.173 M -18.063,33.194 h 4.882 c 1.746,0 3.175,-1.426 3.175,-3.171 0,-1.747 -1.429,-3.175 -3.175,-3.175 h -4.882 c -1.745,0 -3.172,1.428 -3.172,3.175 0,1.745 1.427,3.171 3.172,3.171"
             style="fill:#fbcb54;fill-opacity:1;fill-rule:evenodd;stroke:none"
             id="path64" /></g><g
           id="g66"
           transform="translate(152.8973,354.8822)"><path
             d="m 0,0 c -2.15,-4.616 -7.636,-6.617 -12.253,-4.469 -4.617,2.151 -6.618,7.638 -4.469,12.254 4.157,8.93 9.223,16.855 15.135,23.843 5.93,7.007 12.656,12.994 20.12,18.031 5.74,3.871 12.243,5.782 18.778,5.737 6.575,-0.048 13.071,-2.05 18.753,-6.002 4.911,-3.415 9.651,-7.294 14.182,-11.736 4.493,-4.408 8.695,-9.304 12.541,-14.772 l 0.136,-0.194 c 0.038,-0.019 0.134,-0.028 0.282,-0.027 0.095,0.002 0.172,0.018 0.224,0.045 0.017,0.009 0.066,0.074 0.146,0.188 3.626,5.375 7.707,10.304 12.218,14.805 4.499,4.49 9.346,8.466 14.517,11.956 5.739,3.872 12.242,5.782 18.776,5.737 6.574,-0.048 13.072,-2.05 18.754,-6.002 4.911,-3.415 9.651,-7.294 14.181,-11.736 4.495,-4.408 8.694,-9.304 12.542,-14.772 l 0.137,-0.194 c 0.036,-0.019 0.132,-0.028 0.279,-0.027 0.097,0.002 0.175,0.018 0.226,0.045 0.017,0.009 0.066,0.074 0.146,0.188 3.626,5.375 7.707,10.304 12.217,14.805 4.5,4.49 9.346,8.466 14.517,11.956 5.739,3.872 12.243,5.782 18.777,5.737 6.574,-0.048 13.072,-2.05 18.755,-6.002 4.91,-3.415 9.65,-7.294 14.179,-11.736 4.496,-4.408 8.696,-9.304 12.542,-14.772 l 0.137,-0.194 c 0.037,-0.019 0.132,-0.028 0.28,-0.027 0.097,0.002 0.173,0.018 0.224,0.045 0.02,0.009 0.068,0.074 0.146,0.188 3.628,5.376 7.708,10.304 12.218,14.805 4.501,4.49 9.346,8.466 14.517,11.956 5.74,3.872 12.244,5.782 18.778,5.737 6.574,-0.048 13.072,-2.05 18.753,-6.002 6.987,-4.86 13.566,-10.598 19.611,-17.485 5.962,-6.795 11.329,-14.677 15.956,-23.908 2.269,-4.537 0.429,-10.057 -4.108,-12.325 -4.538,-2.268 -10.056,-0.429 -12.325,4.108 -3.871,7.723 -8.366,14.324 -13.361,20.016 -4.912,5.597 -10.389,10.351 -16.294,14.459 -2.613,1.816 -5.488,2.738 -8.303,2.757 -2.856,0.021 -5.764,-0.858 -8.4,-2.638 -4.298,-2.899 -8.255,-6.134 -11.85,-9.72 -3.582,-3.577 -6.894,-7.591 -9.912,-12.066 -1.76,-2.606 -4.037,-4.664 -6.705,-6.099 -2.635,-1.417 -5.611,-2.176 -8.8,-2.206 -3.137,-0.032 -6.108,0.671 -8.786,2.046 -2.714,1.392 -5.038,3.402 -6.838,5.96 -3.222,4.577 -6.695,8.632 -10.38,12.247 -3.65,3.581 -7.604,6.8 -11.803,9.719 -2.612,1.816 -5.486,2.738 -8.303,2.757 -2.855,0.021 -5.763,-0.858 -8.398,-2.638 -4.3,-2.899 -8.257,-6.134 -11.852,-9.72 -3.583,-3.577 -6.891,-7.591 -9.911,-12.066 -1.758,-2.606 -4.037,-4.664 -6.705,-6.099 -2.635,-1.417 -5.611,-2.176 -8.8,-2.206 -3.139,-0.032 -6.109,0.673 -8.787,2.046 -2.713,1.392 -5.037,3.402 -6.836,5.96 -3.222,4.577 -6.695,8.632 -10.381,12.247 -3.65,3.581 -7.604,6.8 -11.803,9.719 -2.612,1.816 -5.485,2.738 -8.301,2.757 -2.855,0.021 -5.764,-0.858 -8.4,-2.638 -4.3,-2.899 -8.257,-6.134 -11.849,-9.72 -3.584,-3.577 -6.894,-7.591 -9.913,-12.066 C 97.095,9.986 94.816,7.928 92.149,6.493 89.515,5.076 86.539,4.317 83.349,4.287 80.21,4.255 77.239,4.96 74.561,6.333 c -2.714,1.392 -5.037,3.402 -6.836,5.96 -3.221,4.577 -6.695,8.632 -10.38,12.247 -3.652,3.581 -7.605,6.8 -11.802,9.719 -2.614,1.816 -5.487,2.738 -8.303,2.757 -2.855,0.021 -5.762,-0.858 -8.4,-2.638 C 22.729,30.256 17.252,25.392 12.466,19.736 7.661,14.057 3.49,7.497 0,0"
             style="fill:#ef2e32;fill-opacity:1;fill-rule:evenodd;stroke:none"
             id="path68" /></g><g
           id="g70"
           transform="translate(153.3418,359.8403)"><path
             d="m 0,0 c -2.15,-4.616 -7.636,-6.619 -12.253,-4.467 -4.617,2.149 -6.618,7.634 -4.469,12.252 4.157,8.93 9.223,16.857 15.135,23.842 5.93,7.008 12.656,12.996 20.12,18.032 5.74,3.871 12.243,5.782 18.778,5.735 6.575,-0.045 13.071,-2.048 18.753,-6.001 4.911,-3.415 9.651,-7.293 14.182,-11.737 4.493,-4.407 8.695,-9.302 12.541,-14.77 l 0.136,-0.194 c 0.038,-0.018 0.134,-0.028 0.282,-0.027 0.095,0 0.172,0.016 0.224,0.045 0.017,0.009 0.066,0.073 0.146,0.188 3.626,5.376 7.707,10.304 12.218,14.805 4.499,4.489 9.346,8.468 14.516,11.956 5.74,3.872 12.243,5.782 18.777,5.735 6.574,-0.045 13.072,-2.048 18.754,-6.001 4.911,-3.415 9.651,-7.293 14.181,-11.737 4.495,-4.407 8.694,-9.302 12.542,-14.77 l 0.137,-0.194 c 0.036,-0.018 0.133,-0.028 0.279,-0.027 0.097,0 0.175,0.016 0.226,0.045 0.017,0.009 0.066,0.073 0.146,0.188 3.626,5.376 7.707,10.304 12.217,14.805 4.5,4.489 9.347,8.468 14.517,11.956 5.739,3.872 12.243,5.782 18.777,5.735 6.574,-0.045 13.072,-2.048 18.755,-6.001 4.91,-3.415 9.65,-7.293 14.179,-11.737 4.496,-4.407 8.696,-9.302 12.542,-14.77 l 0.137,-0.194 c 0.037,-0.018 0.132,-0.028 0.28,-0.027 0.097,0 0.173,0.016 0.224,0.045 0.019,0.009 0.068,0.073 0.146,0.188 3.628,5.376 7.708,10.304 12.218,14.805 4.501,4.489 9.346,8.468 14.517,11.956 5.74,3.872 12.244,5.782 18.778,5.735 6.574,-0.045 13.072,-2.048 18.753,-6.001 6.987,-4.859 13.567,-10.597 19.611,-17.486 5.962,-6.792 11.329,-14.677 15.956,-23.906 2.269,-4.539 0.429,-10.056 -4.108,-12.325 -4.538,-2.269 -10.056,-0.429 -12.325,4.109 -3.871,7.723 -8.366,14.323 -13.361,20.015 -4.912,5.596 -10.389,10.349 -16.294,14.459 -2.613,1.818 -5.488,2.737 -8.303,2.757 -2.856,0.021 -5.764,-0.858 -8.4,-2.636 -4.298,-2.902 -8.255,-6.137 -11.85,-9.722 -3.582,-3.576 -6.894,-7.591 -9.912,-12.066 -1.76,-2.608 -4.037,-4.664 -6.705,-6.099 -2.635,-1.417 -5.611,-2.176 -8.8,-2.207 -3.137,-0.029 -6.108,0.674 -8.786,2.046 -2.714,1.393 -5.038,3.401 -6.838,5.96 -3.222,4.576 -6.696,8.633 -10.38,12.248 -3.65,3.581 -7.604,6.798 -11.803,9.719 -2.612,1.818 -5.486,2.737 -8.303,2.757 -2.855,0.021 -5.763,-0.858 -8.398,-2.636 -4.3,-2.902 -8.257,-6.137 -11.852,-9.722 -3.582,-3.576 -6.891,-7.591 -9.911,-12.066 -1.758,-2.608 -4.037,-4.664 -6.705,-6.099 -2.634,-1.417 -5.611,-2.176 -8.801,-2.207 -3.138,-0.029 -6.108,0.674 -8.786,2.046 -2.714,1.393 -5.037,3.401 -6.836,5.96 -3.222,4.576 -6.695,8.633 -10.381,12.248 -3.65,3.581 -7.604,6.798 -11.803,9.719 -2.612,1.818 -5.485,2.737 -8.301,2.757 -2.855,0.021 -5.764,-0.858 -8.4,-2.636 -4.3,-2.902 -8.257,-6.137 -11.849,-9.722 -3.584,-3.576 -6.894,-7.591 -9.913,-12.066 C 97.095,9.984 94.816,7.928 92.149,6.493 89.515,5.076 86.539,4.317 83.349,4.286 80.21,4.257 77.239,4.96 74.561,6.332 c -2.714,1.393 -5.037,3.401 -6.836,5.96 -3.221,4.576 -6.695,8.633 -10.38,12.248 -3.652,3.581 -7.605,6.798 -11.802,9.719 -2.614,1.818 -5.487,2.737 -8.303,2.757 -2.855,0.021 -5.762,-0.858 -8.4,-2.636 C 22.729,30.254 17.252,25.392 12.466,19.735 7.661,14.055 3.49,7.497 0,0"
             style="fill:#fab40a;fill-opacity:1;fill-rule:evenodd;stroke:none"
             id="path72" /></g><g
           id="g74"
           transform="translate(148.9385,365.0268)"><path
             d="m 0,0 c 3.483,7.48 7.828,14.518 13.164,20.822 5.053,5.973 10.88,11.158 17.364,15.531 3.303,2.232 7.151,3.497 11.149,3.47 3.981,-0.029 7.788,-1.366 11.042,-3.628 4.415,-3.07 8.588,-6.471 12.428,-10.237 4.041,-3.963 7.695,-8.292 10.951,-12.921 1.325,-1.883 3.037,-3.383 5.084,-4.434 2.03,-1.041 4.244,-1.533 6.522,-1.511 2.295,0.022 4.522,0.537 6.548,1.627 2.021,1.089 3.696,2.635 4.98,4.54 3.092,4.583 6.591,8.879 10.509,12.786 3.843,3.836 8.061,7.273 12.563,10.31 3.303,2.23 7.15,3.495 11.149,3.468 3.981,-0.029 7.788,-1.366 11.041,-3.628 4.416,-3.07 8.589,-6.471 12.428,-10.237 4.043,-3.963 7.696,-8.292 10.952,-12.921 1.325,-1.883 3.037,-3.383 5.083,-4.434 2.032,-1.041 4.244,-1.533 6.524,-1.511 2.295,0.022 4.52,0.537 6.547,1.627 2.021,1.089 3.694,2.635 4.98,4.54 3.092,4.583 6.591,8.879 10.507,12.786 3.846,3.836 8.063,7.273 12.564,10.31 3.304,2.23 7.15,3.495 11.148,3.468 3.981,-0.029 7.788,-1.366 11.043,-3.628 4.414,-3.07 8.589,-6.471 12.428,-10.237 4.043,-3.965 7.694,-8.292 10.952,-12.921 1.324,-1.883 3.037,-3.383 5.084,-4.434 2.029,-1.041 4.241,-1.533 6.521,-1.511 2.295,0.022 4.523,0.537 6.547,1.627 2.023,1.089 3.697,2.635 4.982,4.54 3.092,4.583 6.591,8.879 10.508,12.786 3.845,3.836 8.061,7.273 12.562,10.31 3.304,2.23 7.151,3.495 11.149,3.468 3.981,-0.029 7.789,-1.366 11.043,-3.628 6.317,-4.394 12.093,-9.455 17.171,-15.243 5.599,-6.378 10.255,-13.458 14.053,-21.042 1.072,-2.141 3.669,-3.012 5.811,-1.939 2.139,1.068 3.01,3.668 1.939,5.805 -4.13,8.245 -9.177,15.945 -15.264,22.879 -5.554,6.33 -11.822,11.895 -18.733,16.703 -4.733,3.291 -10.251,5.092 -16.015,5.132 -5.751,0.039 -11.269,-1.696 -16.029,-4.906 -4.953,-3.343 -9.571,-7.148 -13.801,-11.368 -4.322,-4.31 -8.211,-9.023 -11.624,-14.083 -0.499,-0.739 -1.063,-1.316 -1.877,-1.753 -0.763,-0.41 -1.608,-0.611 -2.473,-0.621 -0.894,-0.006 -1.73,0.148 -2.54,0.563 l -1.074,0.55 -0.826,1.18 c -3.543,5.063 -7.553,9.762 -11.964,14.089 -4.196,4.116 -8.728,7.862 -13.554,11.217 -4.732,3.29 -10.25,5.092 -16.014,5.132 -5.751,0.039 -11.268,-1.696 -16.029,-4.906 -4.953,-3.343 -9.57,-7.148 -13.801,-11.368 -4.32,-4.31 -8.209,-9.023 -11.624,-14.083 -0.501,-0.742 -1.069,-1.322 -1.885,-1.758 -0.763,-0.406 -1.605,-0.606 -2.463,-0.616 -0.888,-0.006 -1.717,0.145 -2.52,0.552 l -1.087,0.549 -0.834,1.192 c -3.544,5.063 -7.554,9.762 -11.965,14.089 -4.196,4.114 -8.727,7.862 -13.551,11.217 -4.733,3.29 -10.253,5.092 -16.017,5.132 -5.749,0.039 -11.268,-1.696 -16.027,-4.906 -4.955,-3.343 -9.572,-7.148 -13.802,-11.368 -4.322,-4.31 -8.21,-9.023 -11.626,-14.083 -0.499,-0.742 -1.067,-1.322 -1.884,-1.758 -0.761,-0.406 -1.605,-0.606 -2.463,-0.616 -0.887,-0.006 -1.716,0.145 -2.521,0.552 l -1.087,0.549 -0.832,1.192 C 79.67,23.115 75.66,27.814 71.248,32.141 67.053,36.255 62.521,40.003 57.696,43.358 52.964,46.648 47.445,48.45 41.682,48.49 35.931,48.529 30.412,46.794 25.654,43.584 18.506,38.763 12.094,33.026 6.523,26.441 0.683,19.54 -4.103,11.878 -7.916,3.685 -8.931,1.502 -7.984,-1.098 -5.8,-2.115 -3.617,-3.132 -1.016,-2.185 0,0"
             style="fill:#f9de1c;fill-opacity:1;fill-rule:evenodd;stroke:none"
             id="path76" /></g></g></g></g></svg>
